<svg id="Layer_1" data-name="Layer 1" xmlns="http://www.w3.org/2000/svg" viewBox="0 0 1000 1000"><defs><style>.cls-1,.cls-2{fill:none;stroke:#fff;stroke-linejoin:round;}.cls-1{stroke-width:2px;}.cls-2{stroke-linecap:square;stroke-width:8px;}</style></defs><title>icon-logo</title><polygon class="cls-1" points="188.89 423.02 277.78 269.06 455.56 576.98 366.67 730.94 277.78 576.98 188.89 423.02"/><polygon class="cls-2" points="277.78 269.06 100 576.98 188.89 730.94 277.78 576.98 366.67 730.94 455.56 576.98 544.45 730.94 722.22 730.94 811.11 576.98 722.22 423.02 900 423.02 811.11 269.06 633.33 269.06 544.44 423.02 455.56 269.06 366.67 423.02 277.78 269.06"/><polygon class="cls-1" points="277.78 576.98 188.89 730.94 100 576.98 277.78 269.06 366.67 423.02 277.78 576.98"/><polygon class="cls-1" points="544.45 423.02 633.33 269.06 811.11 269.06 900 423.02 544.45 423.02"/><polyline class="cls-1" points="722.22 730.94 811.11 576.98 633.33 269.06 544.45 423.02 633.33 576.98"/><polygon class="cls-1" points="722.22 730.94 544.45 730.94 455.56 576.98 811.11 576.98 722.22 730.94"/><line class="cls-1" x1="722.22" y1="730.94" x2="633.33" y2="576.98"/></svg>