<?xml version="1.0" encoding="utf-8"?>
<!-- Generator: Adobe Illustrator 19.2.0, SVG Export Plug-In . SVG Version: 6.00 Build 0)  -->
<svg version="1.1" id="Layer_1" xmlns="http://www.w3.org/2000/svg" xmlns:xlink="http://www.w3.org/1999/xlink" x="0px" y="0px"
	 viewBox="0 0 80 80" style="enable-background:new 0 0 80 80;" xml:space="preserve">
<style type="text/css">
	.st0{fill:#FFFFFF;}
</style>
<title>logo</title>
<path class="st0" d="M44.2,40l22-22c0.4-0.4,0.4-1,0-1.3l-2.9-2.9c-0.4-0.4-1-0.4-1.3,0l-22,22l-22-22c-0.4-0.4-1-0.4-1.3,0
	l-2.9,2.9c-0.4,0.4-0.4,1,0,1.3l22,22l-22,22c-0.4,0.4-0.4,1,0,1.3l2.9,2.9c0.4,0.4,1,0.4,1.3,0l22-22l22,22c0.4,0.4,1,0.4,1.3,0
	l2.9-2.9c0.4-0.4,0.4-1,0-1.3L44.2,40z"/>
</svg>
